# xmcd
#
# Track frame offsets:
#	150
#	27781
#	48155
#	68588
#	97927
#	124942
#	153479
#	166569
#
# Disc length: 2482 seconds
#
# Revision: 0
# Processed by: cddbd v1.5.2PL0 Copyright (c) Steve Scherf et al.
# Submitted via: audiograbber 1.83.01
#
DISCID=5309b008
DTITLE=Kreator - Terror Prevails - Live At Rock Hard Festival, Pt. 2
DYEAR=2012
DGENRE=Thrash Metal
TTITLE0=Extreme Aggression
TTITLE1=Coma Of Souls
TTITLE2=Amok Run
TTITLE3=Violent Revolution
TTITLE4=Demon Prince
TTITLE5=When The Sun Burns Red
TTITLE6=Flag Of Hate
TTITLE7=Tormentor
EXTD=
EXTT0=
EXTT1=
EXTT2=
EXTT3=
EXTT4=
EXTT5=
EXTT6=
EXTT7=
PLAYORDER=
